<?xml version="1.0" encoding="utf-8"?>
<!-- Generator: Adobe Illustrator 21.0.0, SVG Export Plug-In . SVG Version: 6.00 Build 0)  -->
<svg version="1.1" id="图层_1" xmlns="http://www.w3.org/2000/svg" xmlns:xlink="http://www.w3.org/1999/xlink" x="0px" y="0px"
	 viewBox="0 0 1024 1024" style="enable-background:new 0 0 1024 1024;" xml:space="preserve">
<style type="text/css">
	.st0{fill-rule:evenodd;clip-rule:evenodd;fill:#1076E5;}
</style>
<g>
	<defs>
		<rect id="SVGID_1_" x="-783.5" y="-2044.2" width="4936.3" height="3928.4"/>
	</defs>
	<clipPath id="SVGID_2_">
		<use xlink:href="#SVGID_1_"  style="overflow:visible;"/>
	</clipPath>
</g>
<g>
	<defs>
		<rect id="SVGID_3_" x="-783.5" y="-2044.2" width="4936.3" height="3928.4"/>
	</defs>
	<clipPath id="SVGID_4_">
		<use xlink:href="#SVGID_3_"  style="overflow:visible;"/>
	</clipPath>
</g>
<g>
	<defs>
		<rect id="SVGID_5_" x="-783.5" y="-2044.2" width="4936.3" height="3928.4"/>
	</defs>
	<clipPath id="SVGID_6_">
		<use xlink:href="#SVGID_5_"  style="overflow:visible;"/>
	</clipPath>
</g>
<g>
	<defs>
		<rect id="SVGID_7_" x="-783.5" y="-2044.2" width="4936.3" height="3928.4"/>
	</defs>
	<clipPath id="SVGID_8_">
		<use xlink:href="#SVGID_7_"  style="overflow:visible;"/>
	</clipPath>
</g>
<g>
	<defs>
		<rect id="SVGID_9_" x="-783.5" y="-2044.2" width="4936.3" height="3928.4"/>
	</defs>
	<clipPath id="SVGID_10_">
		<use xlink:href="#SVGID_9_"  style="overflow:visible;"/>
	</clipPath>
</g>
<g>
	<defs>
		<rect id="SVGID_11_" x="-783.5" y="-2044.2" width="4936.3" height="3928.4"/>
	</defs>
	<clipPath id="SVGID_12_">
		<use xlink:href="#SVGID_11_"  style="overflow:visible;"/>
	</clipPath>
</g>
<g>
	<defs>
		<rect id="SVGID_13_" x="-783.5" y="-2044.2" width="4936.3" height="3928.4"/>
	</defs>
	<clipPath id="SVGID_14_">
		<use xlink:href="#SVGID_13_"  style="overflow:visible;"/>
	</clipPath>
</g>
<g>
	<defs>
		<rect id="SVGID_15_" x="-783.5" y="-2044.2" width="4936.3" height="3928.4"/>
	</defs>
	<clipPath id="SVGID_16_">
		<use xlink:href="#SVGID_15_"  style="overflow:visible;"/>
	</clipPath>
</g>
<g>
	<defs>
		<rect id="SVGID_17_" x="-783.5" y="-2044.2" width="4936.3" height="3928.4"/>
	</defs>
	<clipPath id="SVGID_18_">
		<use xlink:href="#SVGID_17_"  style="overflow:visible;"/>
	</clipPath>
</g>
<g>
	<defs>
		<rect id="SVGID_19_" x="-783.5" y="-2044.2" width="4936.3" height="3928.4"/>
	</defs>
	<clipPath id="SVGID_20_">
		<use xlink:href="#SVGID_19_"  style="overflow:visible;"/>
	</clipPath>
</g>
<g>
	<defs>
		<rect id="SVGID_21_" x="-783.5" y="-2044.2" width="4936.3" height="3928.4"/>
	</defs>
	<clipPath id="SVGID_22_">
		<use xlink:href="#SVGID_21_"  style="overflow:visible;"/>
	</clipPath>
</g>
<g>
	<path class="st0" d="M112.7,418.4v17H72.9c-4.7,0-8.4,3.8-8.4,8.4v0c0,4.7,3.8,8.4,8.4,8.4h39.8v12.1c0,4.9,4,8.8,8.8,8.8
		c4.9,0,8.8-4,8.8-8.8v-12.1h64.2v12.1c0,4.9,4,8.8,8.8,8.8c4.9,0,8.8-4,8.8-8.8v-12.1h39.6c4.7,0,8.4-3.8,8.4-8.4v0
		c0-4.7-3.8-8.4-8.4-8.4h-39.6v-17c0-4.9-4-8.8-8.8-8.8c-4.9,0-8.8,4-8.8,8.8v17h-64.2v-17c0-4.9-4-8.8-8.8-8.8
		C116.6,409.6,112.7,413.6,112.7,418.4"/>
	<path class="st0" d="M347,416.2v10.1h-42.1c-4.6,0-8.4,3.7-8.4,8.3c-0.1,4.7,3.7,8.6,8.4,8.6H347v7.6c0,4.9,4,8.9,8.9,8.9h0
		c4.9,0,8.9-4,8.9-8.9v-7.6h22.1c4.7,0,8.5-3.8,8.5-8.6v0c0-4.7-3.8-8.6-8.5-8.6h-22.1v-9.9c0-4.9-4-8.9-8.9-8.9h0
		C351,407.3,347,411.3,347,416.2"/>
	<path class="st0" d="M430.5,416.3v10.1h-21.7c-4.7,0-8.4,3.8-8.4,8.4v0c0,4.7,3.8,8.4,8.4,8.4h21.7v7.6c0,4.9,4,8.9,8.9,8.9
		c4.9,0,8.9-4,8.9-8.9v-7.6h42.4c4.7,0,8.5-3.8,8.4-8.5c-0.1-4.6-3.8-8.3-8.4-8.3h-42.4v-10.1c0-4.9-4-8.9-8.9-8.9
		C434.5,407.4,430.5,411.4,430.5,416.3"/>
	<path class="st0" d="M68.4,611.6L68.4,611.6c2.3,3.3,6.4,4.7,10.3,3.7c40.3-11.3,68.3-31.7,84-61.4h2.5c15,28.7,42,48.4,81,59.3
		c4,1.1,8.2-0.4,10.6-3.7c4-5.6,1.1-13.6-5.7-15.2c-11.9-2.9-23.2-7.1-34-12.7c-15.1-7.8-25.5-17-31.1-27.7h61.4
		c4.7,0,8.4-3.8,8.4-8.4v0c0-4.7-3.8-8.4-8.4-8.4h-15.5V495c0-7-5.7-12.7-12.7-12.7h-46.5v-11.2c0-4.9-4-8.8-8.8-8.8
		c-4.9,0-8.8,4-8.8,8.8v11.2H105c-7,0-12.7,5.7-12.7,12.7V537H76.2c-4.7,0-8.4,3.8-8.4,8.4v0c0,4.7,3.8,8.4,8.4,8.4h64.6
		c-12.8,20.4-35.2,34.8-67,43.1C67.4,598.7,64.5,606.2,68.4,611.6z M173.3,499.2h36.8c2.3,0,4.2,1.9,4.2,4.2V537h-45.6
		C171.7,525.6,173.3,513,173.3,499.2z M110,537v-33.6c0-2.3,1.9-4.2,4.2-4.2h40.5c0,13.9-2,26.5-6,37.8H110z"/>
	<path class="st0" d="M298.6,610.7L298.6,610.7c2.7,3.1,7.1,4.2,10.8,2.4c26.3-12.4,42.3-33.9,48-64.5h14.8c2.4,0,4.4,2.1,4.2,4.5
		c-1.4,20.8-2.8,32.9-4.2,36.1c-1.5,3.4-4.7,5.2-9.6,5.2c-1.8,0-3.9-0.3-6.5-0.9c-5.3-1.3-10.3,2.9-10,8.3c0.2,4,3.3,7.2,7.2,7.6
		c5.5,0.6,10,0.9,13.4,0.9c9.7,0,16.4-3.4,20.1-10.2c3.3-6,5.7-24.2,7.3-54.6c0.4-7.2-5.4-13.3-12.6-13.3H359
		c0.5-2.4,0.9-4.7,1.1-6.9c0.4-3.3-1.9-6.3-5.1-6.9l-5.3-1v-0.5c25.5-5.2,42.5-17.1,50.9-35.6h48c1.3,0,2.3,1.2,2.1,2.5
		c-0.3,1.7-0.7,4.2-1.3,7.6c-1,6-3,8.9-6.1,8.9c-5.1,0-10.5-0.4-16.3-1.1c-5.8-0.7-10.5,4.6-9.2,10.3c0.8,3.6,3.9,6.3,7.6,6.5
		l10.2,0.8c0,3.2-0.3,8.3-0.9,15.3h-25.1c-4.5,0-8.1,3.6-8.2,8.1c-0.1,4.6,3.6,8.3,8.2,8.3h24c-2.1,11.2-4.9,19.8-8.5,25.5
		c-3.5,5.8-8.7,11-15.5,15.7c-3.8,2.6-7.8,4.9-12.1,6.8c-5.2,2.4-6.7,9-3.3,13.5c2.6,3.4,7.2,4.4,11,2.6
		c26.1-12.3,41.3-33.6,45.7-64.2h17.8c2.4,0,4.4,2.1,4.2,4.5l-0.2,3.5c-0.5,7.7-1.5,15.4-2.8,23l0,0.2c-1.3,7.3-2.2,11.3-2.6,11.9
		c-0.5,0.7-1.3,1.2-2.6,1.5c-1.3,0.3-2.8,0.5-4.6,0.5c-1.4,0-3.1-0.1-5-0.4c-5.5-0.7-10.1,4.2-9.1,9.6c0.7,3.9,4,6.7,7.9,6.8
		c3.3,0.1,6,0.2,8.2,0.2c6,0,10.2-0.5,12.5-1.4c2.3-0.9,4.7-4,7.2-9.3c1.3-2.7,2.5-6.3,3.7-10.8c2.3-8.6,3.7-17.4,4.2-26.3l1.1-16.7
		c0.5-7.3-5.3-13.5-12.6-13.5h-26.5c0.1-1.5,0.3-3.4,0.6-5.7c0.4-3.2-1.6-6.3-4.8-7l-8.9-2.1l0.5-0.5c6.7,0.3,12.4-0.8,16.9-3.3
		c4.6-2.5,7.8-6.4,9.7-11.8c1.4-4,2.7-11.8,3.7-23.5c0.7-7.4-5.1-13.9-12.6-13.9h-51c0.5-1.5,0.9-3,1.2-4.5c1.2-5.3-2.6-10.4-8-10.8
		c-4.4-0.3-8.4,2.6-9.3,6.9c-0.6,3-1.4,6.2-2.3,8.4h-54.1c-4.6,0-8.4,3.7-8.4,8.3c-0.1,4.7,3.7,8.5,8.4,8.5h46.4
		c-4.2,6-9.7,10.6-16.6,13.6c-6.9,3-13.4,4.9-19.5,5.8c-4.5,0.6-12.5,1.4-24.1,2.5c-6.4,0.6-10.3,7.5-7.3,13.2
		c1.7,3.4,5.4,5.3,9.2,4.9c6.4-0.7,13.9-1.8,22.5-3.1c-0.4,5.9-0.9,10.5-1.6,13.7h-31.1c-4.6,0-8.3,3.7-8.3,8.3v0
		c0,4.6,3.7,8.3,8.3,8.3H340c-0.4,0.9-1.1,3.1-2,6.5c-5.5,18.7-17.5,32.5-36.3,41.4C296.2,599.1,294.7,606.1,298.6,610.7"/>
	<path class="st0" d="M526.6,534.7L526.6,534.7c2.5,3.1,6.8,4.2,10.4,2.6c5.6-2.5,11.3-5.4,17.2-8.6v63.1c0,3.9-0.5,6.2-1.6,7
		c-1.1,0.8-3.5,1.2-7.2,1.2c-1.1,0-2.3,0-3.5-0.1c-6-0.2-10.3,5.7-8.2,11.3c1.2,3.2,4.2,5.4,7.6,5.5c1.3,0,2.6,0.1,4,0.1
		c17.6,0,26.4-6,26.4-17.9V522l18.2-9.1c2.8-1.4,4.6-4.3,4.6-7.4c0-6.1-6.3-10.1-11.9-7.5l-10.9,5.1V466H586c4.7,0,8.4-3.8,8.4-8.4
		v0c0-4.7-3.8-8.4-8.4-8.4h-14.3v-31.2c0-4.8-3.9-8.8-8.8-8.8h0c-4.8,0-8.8,3.9-8.8,8.8v31.2h-19.4c-4.7,0-8.4,3.8-8.4,8.4v0
		c0,4.7,3.8,8.4,8.4,8.4h19.4v44.3c-6.8,3.4-14.8,7.1-24.1,10.9C524.7,523.5,522.9,530.2,526.6,534.7"/>
	<path class="st0" d="M766.1,488.8h17.2c2.3,0,4.2,1.9,4.2,4.2v86c0,0.8-0.1,1.5-0.3,2.2c-0.8,2.9-0.6,6,1.1,8.5l1.5,2.1
		c2.9,4.3,8.8,5.4,13.1,2.4l26.8-18.5c2.2-1.5,3.5-4,3.5-6.6c0-6.4-7.1-10.2-12.4-6.7l-15.6,10.2v-92.5c0-4.7-3.8-8.4-8.4-8.4h-30.6
		c-4.7,0-8.5,3.8-8.5,8.5C757.6,485,761.4,488.8,766.1,488.8"/>
	<path class="st0" d="M821.6,530.9L821.6,530.9c0,4.7,3.8,8.4,8.4,8.4h35.6c-7.1,18.3-22,34.3-44.6,47.9c-4.9,3-5.7,9.8-1.5,13.8
		c2.9,2.8,7.3,3.2,10.7,1c15.9-10.1,27.1-19.4,33.8-27.8c7.5-9.4,12.9-18.6,16.4-27.7h0.2V607c0,4.9,4,8.8,8.8,8.8
		c4.9,0,8.8-4,8.8-8.8v-60.5h0.2c11,23.6,27,41.5,48,53.8c3.3,1.9,7.4,1.5,10.2-1.1c4.3-3.9,3.6-10.8-1.4-13.9
		c-18-10.9-31.8-26.2-41.4-46.1H949c4.7,0,8.4-3.8,8.4-8.4v0c0-4.7-3.8-8.4-8.4-8.4h-50.7v-13.5h38.4c3.5,0,6.3-2.8,6.3-6.3v-78.1
		c0-3.5-2.8-6.3-6.3-6.3h-94.5c-3.5,0-6.3,2.8-6.3,6.3v78.1c0,3.5,2.8,6.3,6.3,6.3h38.4v13.5H830
		C825.3,522.4,821.6,526.2,821.6,530.9z M898.4,454.5h27.1v-19.3h-27.1V454.5z M898.4,492.1h27.1v-20.7h-27.1V492.1z M853.6,454.5
		h27.1v-19.3h-27.1V454.5z M853.6,492.1h27.1v-20.7h-27.1V492.1z"/>
	<path class="st0" d="M813.8,434.4c-6-8.9-13.2-16.7-21.5-23.2c-3.1-2.5-7.6-2.3-10.6,0.3c-3.7,3.2-3.9,9-0.3,12.4
		c7.1,6.6,12.9,13.3,17.4,20.3c2.8,4.4,8.8,5.6,13,2.4C815.6,443.7,816.4,438.3,813.8,434.4"/>
	<path class="st0" d="M705.1,409.5c-26.5,7.8-59.3,12.2-98.3,13.1c-5.9,0.1-9.7,6.3-7,11.6c1.5,2.9,4.6,4.7,7.9,4.4l6.6-0.6
		c-5.1,3.2-5.7,10.2-1.5,14.5c4.1,4.2,7.4,8.9,9.9,14H599c-4.7,0-8.5,3.8-8.5,8.5c0,4.7,3.8,8.5,8.5,8.5h33.5
		c-9.6,14.4-23.9,25.8-42.9,34.2c-4.9,2.2-6.7,8.3-3.6,12.7c2.5,3.6,7.2,4.7,11,2.7l9.3-4.9v78.8c0,4.9,4,8.8,8.8,8.8
		c4.9,0,8.8-4,8.8-8.8v-6h71v6.6c0,4.5,3.7,8.2,8.2,8.2h0c4.5,0,8.2-3.7,8.2-8.2v-81.7c2.7,2,5.2,3.7,7.2,5
		c3.7,2.4,8.5,1.7,11.4-1.5c3.9-4.3,2.7-11-2.3-13.8c-17-9.5-29.4-20.2-37-32.1h26.7c4.7,0,8.5-3.8,8.5-8.5c0-4.7-3.8-8.5-8.5-8.5
		h-50.6v-33.2c16.3-2,30.6-4.8,43-8.4c6.2-1.8,7.8-9.8,2.9-14C710.6,409.3,707.7,408.8,705.1,409.5z M627.9,467.1l4.1-1.7
		c4-1.6,5.6-6.5,3.3-10.1c-4.3-7.1-9.1-13-14.4-17.6c12.2-0.2,21.7-0.8,28.3-1.8v30.8L627.9,467.1z M623.9,584.4h26.2v-14.8h-26.2
		V584.4z M623.9,553.5h26.2v-14.8h-26.2V553.5z M667.8,584.4h27.2v-14.8h-27.2V584.4z M667.8,553.5h27.2v-14.8h-27.2V553.5z
		 M671.5,483.7c9.7,17.4,21.2,30.1,34.5,38.1h-89v-0.2c14.5-9,25-20,31.5-33.2h0.7v21.5c0,4.9,4,8.8,8.8,8.8c4.9,0,8.8-4,8.8-8.8
		v-26.2H671.5z"/>
	<path class="st0" d="M686.2,463.3L686.2,463.3c2.8,1.5,6.3,1.2,8.7-0.8c4.8-4.1,8.8-8.9,12-14.2c2.2-3.7,1-8.5-2.7-10.8
		c-3.8-2.4-8.8-1.3-11.2,2.6c-2.4,3.7-5.3,7.4-8.7,11C680.8,454.8,681.7,460.9,686.2,463.3"/>
</g>
</svg>
